<svg ng-if="song.stats.concurrents + 1 > 50" class="inline_icon inline_icon--pink inline_icon--reading_size inline_icon--up_2" src="fire.svg" xmlns="http://www.w3.org/2000/svg" viewBox="0 0 17 26"><path fill="#FF1464" d="M4 3c2.95 1 6.84 8.93 6.84 8.93.94-1.645 1.29-3.56 1-5.43C15.068 9.46 16.934 13.62 17 18c-.12 7-8.85 8.05-8.85 8.05.926-.702 1.554-1.726 1.76-2.87.29-1.8-2.58-3.8-2.58-3.8-2.48 4.15-1.07 6.67-1.07 6.67S0 23.1 0 19.24c0-3.86 4.22-7.75 4.62-10.79C4.828 6.61 4.616 4.747 4 3zm2.58 5.51h-.02v.17c-.393 1.918-1.187 3.73-2.33 5.32C3.13 15.77 2 17.65 2 19.25c0 1 .88 2.07 2 3 .313-1.383.86-2.702 1.62-3.9l1.1-1.84 1.84 1.2c.59.45 3.29 2.48 3.44 5 1.808-.915 2.963-2.754 3-4.78-.01-2.238-.607-4.434-1.73-6.37-.19.5-.426.98-.7 1.44l-1.89 3.1-1.62-3.29c-.736-1.484-1.565-2.92-2.48-4.3z"></path></svg>