<?xml version="1.0" encoding="UTF-8"?>
<svg width="50px" height="89px" viewBox="0 0 50 89" version="1.1" xmlns="http://www.w3.org/2000/svg" xmlns:xlink="http://www.w3.org/1999/xlink">
    <!-- Generator: Sketch 48.2 (47327) - http://www.bohemiancoding.com/sketch -->
    <title>Drug</title>
    <desc>Created with Sketch.</desc>
    <defs>
        <rect id="path-1" x="0" y="42" width="48" height="25"></rect>
        <rect id="path-2" x="0" y="0" width="22" height="9"></rect>
    </defs>
    <g id="Icons" stroke="none" stroke-width="1" fill="none" fill-rule="evenodd" transform="translate(-51.000000, -28.000000)">
        <g id="Drug" transform="translate(52.000000, 28.000000)">
            <path d="M16,14.0811361 L16,9 L32,9 L32,14.0811361 C41.321539,16.6894334 48,23.7272808 48,32 C48,32.3354345 47.9890202,32.6688389 47.9673295,33 L48,33 L48,88 L0,88 L0,33 L0.0326704639,33 C0.0109798236,32.6688389 0,32.3354345 0,32 C0,23.7272808 6.67846102,16.6894334 16,14.0811361 Z" id="Bottle" stroke="#4065AC" stroke-width="2" fill="#D8D8D8"></path>
            <g id="Sticker">
                <use fill="#4065AC" fill-rule="evenodd" xlink:href="#path-1"></use>
                <rect stroke="#4065AC" stroke-width="1" x="0.5" y="42.5" width="47" height="24"></rect>
            </g>
            <g id="Cross" transform="translate(14.000000, 44.000000)">
                <circle id="Oval-2" fill="#D8D8D8" cx="10.5" cy="10.5" r="10.5"></circle>
                <path d="M10.5,4.5 L10.5,16.5" id="Line-2" stroke="#4065AC" stroke-width="3" stroke-linecap="square"></path>
                <path d="M4.5,10.5 L16.5,10.5" id="Line-3" stroke="#4065AC" stroke-width="3" stroke-linecap="square"></path>
            </g>
            <g id="Cap" transform="translate(13.000000, 0.000000)">
                <g id="Rectangle">
                    <use fill="#D8D8D8" fill-rule="evenodd" xlink:href="#path-2"></use>
                    <rect stroke="#4065AC" stroke-width="2" x="1" y="1" width="20" height="7"></rect>
                </g>
                <path d="M3.5,3.5 L3.5,5.5" id="Line" stroke="#4065AC" stroke-width="2" fill="#D8D8D8" stroke-linecap="square"></path>
                <path d="M6.5,3.5 L6.5,5.5" id="Line" stroke="#4065AC" stroke-width="2" fill="#D8D8D8" stroke-linecap="square"></path>
                <path d="M9.5,3.5 L9.5,5.5" id="Line" stroke="#4065AC" stroke-width="2" fill="#D8D8D8" stroke-linecap="square"></path>
                <path d="M12.5,3.5 L12.5,5.5" id="Line" stroke="#4065AC" stroke-width="2" fill="#D8D8D8" stroke-linecap="square"></path>
                <path d="M15.5,3.5 L15.5,5.5" id="Line" stroke="#4065AC" stroke-width="2" fill="#D8D8D8" stroke-linecap="square"></path>
                <path d="M18.5,3.5 L18.5,5.5" id="Line" stroke="#4065AC" stroke-width="2" fill="#D8D8D8" stroke-linecap="square"></path>
            </g>
        </g>
    </g>
</svg>